<svg width="70" height="24" viewBox="0 0 70 24" fill="none" xmlns="http://www.w3.org/2000/svg">
<path d="M21.6833 22.1333L16.5773 17.0273M19.25 10.575C19.25 5.53538 15.1646 1.44998 10.125 1.44998C5.0854 1.44998 1 5.53538 1 10.575C1 15.6146 5.0854 19.7 10.125 19.7C15.1646 19.7 19.25 15.6146 19.25 10.575Z" stroke="#A4A4A4" stroke-width="1.5" stroke-linecap="round" stroke-linejoin="round"/>
<path d="M64.3833 15.6667H54.8833C52.2599 15.6667 50.1333 17.8555 50.1333 20.5556V23H69.1333V20.5556C69.1333 17.8555 67.0067 15.6667 64.3833 15.6667Z" stroke="#A4A4A4" stroke-width="1.5" stroke-linecap="round" stroke-linejoin="round"/>
<path d="M59.6333 10.7778C62.2567 10.7778 64.3833 8.58895 64.3833 5.88889C64.3833 3.18883 62.2567 1 59.6333 1C57.0099 1 54.8833 3.18883 54.8833 5.88889C54.8833 8.58895 57.0099 10.7778 59.6333 10.7778Z" stroke="#A4A4A4" stroke-width="1.5" stroke-linecap="round" stroke-linejoin="round"/>
</svg>
