<svg width="83" height="14" viewBox="0 0 83 14" fill="none" xmlns="http://www.w3.org/2000/svg">
<path opacity="0.35" d="M53.3975 2.86744C53.3975 1.67082 54.3675 0.700775 55.5641 0.700775H77.4528C78.6494 0.700775 79.6195 1.67083 79.6195 2.86744V11.1341C79.6195 12.3307 78.6494 13.3008 77.4528 13.3008H55.5641C54.3675 13.3008 53.3975 12.3307 53.3975 11.1341V2.86744Z" stroke="#111111"/>
<path opacity="0.4" d="M81.3569 4.60117V9.40117C82.3527 8.99463 83.0002 8.04893 83.0002 7.00117C83.0002 5.95341 82.3527 5.0077 81.3569 4.60117Z" fill="#111111"/>
<path d="M55.3723 3.70077C55.3723 3.09326 55.8648 2.60077 56.4723 2.60077H76.5449C77.1524 2.60077 77.6449 3.09326 77.6449 3.70077V10.3008C77.6449 10.9083 77.1524 11.4008 76.5449 11.4008H56.4723C55.8648 11.4008 55.3723 10.9083 55.3723 10.3008V3.70077Z" fill="#111111"/>
<path fill-rule="evenodd" clip-rule="evenodd" d="M37.2207 2.93006C39.9626 2.93017 42.5996 3.9519 44.5868 5.78406C44.7364 5.92551 44.9756 5.92372 45.123 5.78006L46.5534 4.38006C46.628 4.30719 46.6696 4.20849 46.669 4.10579C46.6684 4.0031 46.6256 3.90487 46.5501 3.83286C41.3344 -1.0146 33.1062 -1.0146 27.8906 3.83286C27.8151 3.90482 27.7722 4.00301 27.7715 4.10571C27.7708 4.20841 27.8123 4.30714 27.8869 4.38006L29.3177 5.78006C29.465 5.92394 29.7043 5.92573 29.8539 5.78406C31.8413 3.95178 34.4786 2.93005 37.2207 2.93006ZM37.2207 7.48486C38.7272 7.48477 40.1799 8.02781 41.2966 9.00846C41.4477 9.14763 41.6856 9.14462 41.8328 9.00166L43.2616 7.60166C43.3368 7.52822 43.3786 7.4286 43.3775 7.32509C43.3764 7.22157 43.3326 7.12279 43.2558 7.05086C39.8553 3.9832 34.5891 3.9832 31.1886 7.05086C31.1118 7.12279 31.068 7.22162 31.067 7.32517C31.0659 7.42872 31.1078 7.52833 31.1832 7.60166L32.6116 9.00166C32.7588 9.14462 32.9967 9.14763 33.1478 9.00846C34.2637 8.02845 35.7153 7.48546 37.2207 7.48486ZM40.0828 10.5494C40.0849 10.6532 40.0429 10.7533 39.9665 10.8261L37.495 13.2449C37.4226 13.3159 37.3238 13.356 37.2207 13.356C37.1177 13.356 37.0189 13.3159 36.9465 13.2449L34.4746 10.8261C34.3983 10.7533 34.3563 10.6532 34.3585 10.5494C34.3608 10.4455 34.4071 10.3472 34.4866 10.2777C36.0649 8.983 38.3766 8.983 39.9549 10.2777C40.0343 10.3473 40.0806 10.4456 40.0828 10.5494Z" fill="#111111"/>
<path fill-rule="evenodd" clip-rule="evenodd" d="M20.3139 0.600403H19.0766C18.3932 0.600403 17.8392 1.13766 17.8392 1.8004V12.2004C17.8392 12.8631 18.3932 13.4004 19.0766 13.4004H20.3139C20.9973 13.4004 21.5513 12.8631 21.5513 12.2004V1.8004C21.5513 1.13766 20.9973 0.600403 20.3139 0.600403ZM13.3022 3.4004H14.5396C15.223 3.4004 15.7769 3.93766 15.7769 4.6004V12.2004C15.7769 12.8631 15.223 13.4004 14.5396 13.4004H13.3022C12.6188 13.4004 12.0648 12.8631 12.0648 12.2004V4.6004C12.0648 3.93766 12.6188 3.4004 13.3022 3.4004ZM8.76521 6.2004H7.52784C6.84447 6.2004 6.29048 6.73766 6.29048 7.4004V12.2004C6.29048 12.8631 6.84447 13.4004 7.52784 13.4004H8.76521C9.44859 13.4004 10.0026 12.8631 10.0026 12.2004V7.4004C10.0026 6.73766 9.44859 6.2004 8.76521 6.2004ZM2.99084 8.6004H1.75348C1.0701 8.6004 0.516113 9.13766 0.516113 9.8004V12.2004C0.516113 12.8631 1.0701 13.4004 1.75348 13.4004H2.99084C3.67422 13.4004 4.22821 12.8631 4.22821 12.2004V9.8004C4.22821 9.13766 3.67422 8.6004 2.99084 8.6004Z" fill="#111111"/>
</svg>
